<?xml version="1.0" encoding="utf-8"?>
<!-- Generator: Adobe Illustrator 18.1.0, SVG Export Plug-In . SVG Version: 6.00 Build 0)  -->
<svg version="1.1" id="US_UK_Download_on_the" xmlns="http://www.w3.org/2000/svg" xmlns:xlink="http://www.w3.org/1999/xlink"
	 x="0px" y="0px" viewBox="0 0 135 40" enable-background="new 0 0 135 40" xml:space="preserve">
<path d="M130.2,0H4.7C2.1,0,0,2.1,0,4.7v30.5C0,37.9,2.1,40,4.7,40h125.5c2.6,0,4.8-2.1,4.8-4.7V4.7C135,2.1,132.8,0,130.2,0z"/>
<g>
	<g>
		<g>
			<path fill="#FFFFFF" d="M88.6,28.3l-0.8,0.8c-0.2,0.1-0.4,0.2-0.6,0.3c-0.6,0.3-1.2,0.3-1.7,0.3c-0.6,0-1.4,0-2.3-0.7
				c-1.2-0.9-1.8-2.4-1.8-3.7c0-2.7,2.2-4.1,4-4.1c0.6,0,1.3,0.2,1.8,0.5c0.9,0.6,1.1,1.3,1.2,1.7l-4.1,1.7l-1.4,0.1
				c0.4,2.2,1.9,3.5,3.6,3.5C87.4,28.8,88,28.5,88.6,28.3C88.6,28.3,88.7,28.2,88.6,28.3z M86.1,23.8c0.3-0.1,0.5-0.2,0.5-0.5
				c0-0.7-0.8-1.5-1.7-1.5c-0.7,0-2,0.5-2,2.4c0,0.3,0,0.6,0.1,0.9L86.1,23.8z"/>
			<path fill="#FFFFFF" d="M80,28.1c0,0.7,0.1,0.8,0.7,0.8c0.3,0,0.6,0,0.9,0.1l-0.6,0.4h-3.1c0.4-0.5,0.5-0.6,0.5-0.9v-0.4l0-10.5
				h-1.4l1.3-0.6h2.5c-0.5,0.3-0.7,0.5-0.8,1.1L80,28.1z"/>
			<path fill="#FFFFFF" d="M75.2,22.1c0.4,0.3,1.2,1,1.2,2.4c0,1.3-0.7,1.9-1.5,2.5c-0.2,0.2-0.5,0.5-0.5,0.9c0,0.4,0.3,0.6,0.5,0.8
				l0.6,0.5c0.8,0.7,1.5,1.2,1.5,2.5c0,1.7-1.6,3.3-4.6,3.3c-2.5,0-3.8-1.2-3.8-2.5c0-0.6,0.3-1.5,1.4-2.1c1.1-0.7,2.6-0.8,3.4-0.8
				c-0.2-0.3-0.5-0.7-0.5-1.2c0-0.3,0.1-0.5,0.2-0.7c-0.2,0-0.4,0-0.6,0c-1.9,0-2.9-1.4-2.9-2.8c0-0.8,0.4-1.7,1.1-2.4
				c1-0.8,2.2-1,3.1-1h3.6l-1.1,0.6H75.2z M73.9,29.9c-0.1,0-0.2,0-0.4,0c-0.2,0-1.1,0-1.8,0.3c-0.4,0.1-1.5,0.6-1.5,1.8
				c0,1.2,1.2,2.1,3.1,2.1c1.7,0,2.6-0.8,2.6-1.9C75.8,31.4,75.3,30.9,73.9,29.9z M74.4,26.6c0.4-0.4,0.4-1,0.4-1.3
				c0-1.3-0.8-3.2-2.2-3.2c-0.5,0-0.9,0.2-1.2,0.6C71.1,23,71,23.5,71,24c0,1.2,0.7,3.1,2.2,3.1C73.7,27.1,74.2,26.9,74.4,26.6z"/>
			<path fill="#FFFFFF" d="M64.3,29.7c-2.8,0-4.3-2.2-4.3-4.1c0-2.3,1.9-4.3,4.6-4.3c2.6,0,4.2,2,4.2,4.1
				C68.7,27.5,67.1,29.7,64.3,29.7z M66.5,28.3c0.4-0.6,0.5-1.3,0.5-1.9c0-1.5-0.7-4.5-2.9-4.5c-0.6,0-1.2,0.2-1.6,0.6
				c-0.7,0.6-0.8,1.4-0.8,2.1c0,1.7,0.9,4.6,3,4.6C65.4,29.2,66.1,28.8,66.5,28.3z"/>
			<path fill="#FFFFFF" d="M54.9,29.7c-2.8,0-4.3-2.2-4.3-4.1c0-2.3,1.9-4.3,4.6-4.3c2.6,0,4.2,2,4.2,4.1
				C59.4,27.5,57.8,29.7,54.9,29.7z M57.1,28.3c0.4-0.6,0.5-1.3,0.5-1.9c0-1.5-0.7-4.5-2.9-4.5c-0.6,0-1.2,0.2-1.6,0.6
				c-0.7,0.6-0.8,1.4-0.8,2.1c0,1.7,0.9,4.6,3,4.6C56,29.2,56.7,28.8,57.1,28.3z"/>
			<path fill="#FFFFFF" d="M49.5,29.1l-2.4,0.5c-1,0.2-1.8,0.3-2.7,0.3c-4.5,0-6.3-3.3-6.3-6c0-3.2,2.5-6.2,6.7-6.2
				c0.9,0,1.7,0.1,2.5,0.3c1.2,0.3,1.8,0.8,2.2,1l-1.4,1.3l-0.6,0.1l0.4-0.7c-0.6-0.5-1.6-1.5-3.5-1.5c-2.6,0-4.6,2-4.6,4.9
				c0,3.1,2.2,6,5.8,6c1.1,0,1.6-0.2,2.1-0.4v-2.7l-2.5,0.1l1.3-0.7h3.5L49.7,26c-0.1,0.1-0.1,0.1-0.2,0.3c0,0.1,0,0.6,0,0.8V29.1z"
				/>
		</g>
		<g>
			<path fill="#FFFFFF" d="M93.7,28.4v4.5h-0.9V21.4h0.9v1.3c0.6-0.8,1.6-1.5,2.9-1.5c2.2,0,3.7,1.7,3.7,4.3c0,2.6-1.5,4.3-3.7,4.3
				C95.4,29.9,94.3,29.3,93.7,28.4z M99.3,25.6c0-2-1-3.5-2.9-3.5c-1.1,0-2.2,0.9-2.7,1.7v3.6c0.5,0.8,1.6,1.7,2.7,1.7
				C98.2,29.1,99.3,27.6,99.3,25.6z"/>
			<path fill="#FFFFFF" d="M101.5,29.7V18.3h0.9v11.4H101.5z"/>
			<path fill="#FFFFFF" d="M112.3,32.1c0.2,0.1,0.5,0.1,0.7,0.1c0.5,0,0.9-0.2,1.3-1l0.6-1.5l-3.5-8.3h1l3,7.2l3-7.2h1l-4.3,10.1
				c-0.4,1-1.1,1.5-2.1,1.5c-0.3,0-0.7-0.1-0.9-0.1L112.3,32.1z"/>
			<path fill="#FFFFFF" d="M109.7,29.7c-0.1-0.3-0.1-0.5-0.1-0.7c0-0.2,0-0.4,0-0.6c-0.3,0.4-0.7,0.8-1.3,1.1
				c-0.6,0.3-1.1,0.4-1.8,0.4c-0.9,0-1.5-0.2-2-0.6c-0.5-0.4-0.7-1-0.7-1.8c0-0.7,0.3-1.3,1-1.8c0.7-0.5,1.6-0.7,2.7-0.7h2.1v-1
				c0-0.6-0.2-1.1-0.6-1.4c-0.4-0.3-1-0.5-1.7-0.5c-0.7,0-1.2,0.2-1.6,0.5c-0.4,0.3-0.6,0.7-0.6,1.2h-0.9l0,0c0-0.6,0.3-1.2,0.9-1.6
				c0.6-0.5,1.4-0.7,2.4-0.7c1,0,1.8,0.2,2.3,0.7c0.6,0.5,0.9,1.1,0.9,2V28c0,0.3,0,0.6,0.1,0.8c0,0.3,0.1,0.5,0.2,0.8H109.7z
				 M106.6,29c0.8,0,1.3-0.2,1.9-0.5c0.6-0.3,0.9-0.8,1.1-1.3v-1.6h-2.1c-0.8,0-1.5,0.2-2,0.5c-0.5,0.4-0.8,0.8-0.8,1.3
				c0,0.5,0.2,0.8,0.5,1.1C105.5,28.9,106,29,106.6,29z"/>
		</g>
	</g>
	<g>
		<polygon fill="none" points="26.5,25.1 29.4,22.2 29.4,22.2 26.5,25.1 17.4,16 17.4,16 26.5,25.1 17.4,34.2 17.4,34.2 26.5,25.1 
			29.4,28 29.4,28 		"/>
		
			<linearGradient id="SVGID_1_" gradientUnits="userSpaceOnUse" x1="502.0732" y1="-487.6685" x2="490.053" y2="-495.1913" gradientTransform="matrix(0.7071 0.7071 -0.7071 0.7071 -675.2177 14.1778)">
			<stop  offset="0" style="stop-color:#D6FFA1"/>
			<stop  offset="0.3264" style="stop-color:#93E2A7"/>
			<stop  offset="1" style="stop-color:#00A3B5"/>
		</linearGradient>
		<path fill="url(#SVGID_1_)" d="M29.4,22.2l-11.1-6.1C18,16,17.7,15.9,17.4,16l9.1,9.1L29.4,22.2z"/>
		
			<linearGradient id="SVGID_2_" gradientUnits="userSpaceOnUse" x1="495.0843" y1="-494.0949" x2="510.6694" y2="-490.0208" gradientTransform="matrix(0.7071 0.7071 -0.7071 0.7071 -675.2177 14.1778)">
			<stop  offset="0" style="stop-color:#FF177B"/>
			<stop  offset="0.6721" style="stop-color:#FFA976"/>
			<stop  offset="1" style="stop-color:#FFEC73"/>
		</linearGradient>
		<path fill="url(#SVGID_2_)" d="M29.4,28l3.8-2.1c0.8-0.4,0.8-1.1,0-1.5l-3.8-2.1l-2.9,2.9L29.4,28z"/>
		
			<linearGradient id="SVGID_3_" gradientUnits="userSpaceOnUse" x1="503.7854" y1="-481.9619" x2="486.8851" y2="-491.9051" gradientTransform="matrix(0.7071 0.7071 -0.7071 0.7071 -675.2177 14.1778)">
			<stop  offset="0" style="stop-color:#63FFD4"/>
			<stop  offset="0.4854" style="stop-color:#32A0BA"/>
			<stop  offset="0.8349" style="stop-color:#1262A9"/>
			<stop  offset="1" style="stop-color:#064AA2"/>
		</linearGradient>
		<path fill="url(#SVGID_3_)" d="M17.4,16c-0.3,0.1-0.6,0.4-0.6,1l0,16.3c0,0.5,0.2,0.8,0.5,1l9.1-9.1L17.4,16z"/>
		
			<linearGradient id="SVGID_4_" gradientUnits="userSpaceOnUse" x1="509.9206" y1="-489.8564" x2="499.5153" y2="-476.1479" gradientTransform="matrix(0.7071 0.7071 -0.7071 0.7071 -675.2177 14.1778)">
			<stop  offset="0" style="stop-color:#FF4521"/>
			<stop  offset="0.3411" style="stop-color:#D43E65"/>
			<stop  offset="0.7935" style="stop-color:#9F36B9"/>
			<stop  offset="1" style="stop-color:#8A33DB"/>
		</linearGradient>
		<path fill="url(#SVGID_4_)" d="M17.4,34.2c0.2,0.1,0.5,0,0.9-0.1L29.4,28l-2.9-2.9L17.4,34.2z"/>
	</g>
	<g>
		<g>
			<path fill="#FFFFFF" d="M38.1,9c0-1.8,1.3-2.9,2.9-2.9c1.1,0,1.8,0.5,2.2,1.2l-0.8,0.5c-0.3-0.4-0.8-0.7-1.4-0.7
				c-1.1,0-1.9,0.8-1.9,2c0,1.2,0.8,2,1.9,2c0.6,0,1.1-0.3,1.3-0.5V9.6h-1.7V8.7h2.6v2.1c-0.5,0.6-1.3,1-2.3,1
				C39.4,11.8,38.1,10.7,38.1,9z"/>
			<path fill="#FFFFFF" d="M44.5,11.7V6.2h3.8V7h-2.8v1.4h2.8v0.9h-2.8v1.6h2.8v0.9H44.5z"/>
			<path fill="#FFFFFF" d="M51.1,11.7V7h-1.7V6.2h4.3V7H52v4.7H51.1z"/>
			<path fill="#FFFFFF" d="M57.1,11.7V6.2h1v5.6H57.1z"/>
			<path fill="#FFFFFF" d="M60.8,11.7V7h-1.7V6.2h4.3V7h-1.7v4.7H60.8z"/>
			<path fill="#FFFFFF" d="M66.6,9c0-1.7,1.2-2.9,2.8-2.9c1.7,0,2.8,1.2,2.8,2.9s-1.2,2.9-2.8,2.9C67.8,11.8,66.6,10.6,66.6,9z
				 M71.3,9c0-1.2-0.7-2-1.8-2c-1.1,0-1.8,0.9-1.8,2c0,1.1,0.7,2,1.8,2C70.6,11,71.3,10.1,71.3,9z"/>
			<path fill="#FFFFFF" d="M77.3,11.7l-2.9-4v4h-1V6.2h1l2.8,3.9V6.2h1v5.6H77.3z"/>
		</g>
	</g>
</g>
</svg>
